<svg width="354" height="206" viewBox="0 0 354 206" fill="none" xmlns="http://www.w3.org/2000/svg">
<path fill-rule="evenodd" clip-rule="evenodd" d="M354 0H0V206H252.135C226.818 205.985 204.97 196.11 192.702 187.111C156.34 156.932 144.318 86.7739 144.318 86.7739C144.318 86.7739 144.168 80.869 140.317 76.2498C120.595 50.9982 92.5532 57.0035 80.998 63.1627C55.1138 79.7922 57.8867 108.585 62.5093 120.902C77.9165 154.776 111.043 149.387 125.68 142.458L152.642 190.96C136.619 206.357 100.257 205.587 84.0796 203.278C29.229 190.96 7.30078 145.794 3.19336 124.751C-9.13281 60.6985 33.4941 22.6162 56.3486 11.5815C101.338 -9.97461 143.914 6.1925 159.578 16.9707C197.326 44.6859 203.622 92.4177 203.622 92.4177C203.622 92.4177 205.111 105.42 208.111 113.974C216.322 137.379 248.684 149.131 262.808 146.308C299.785 135.838 298.758 102.426 293.622 87.0284C276.366 50.075 243.292 55.7206 228.911 63.1627L200.408 13.1213C264.504 -21.984 319.044 21.5897 338.301 47.7648C349.705 66.613 353.968 85.0453 354 101.792V0ZM354 102.168C353.943 132.311 340.205 156.946 329.827 168.634C304.41 196.756 276.715 205.986 252.249 206H354V102.168Z" fill="#06122F"/>
</svg>
