<svg width="364" height="212" viewBox="0 0 364 212" fill="none" xmlns="http://www.w3.org/2000/svg">
<path fill-rule="evenodd" clip-rule="evenodd" d="M0 0H364V3V209V212H0V209V3V0ZM359 104.781V105.178C358.94 135.317 345.204 159.947 334.827 171.634C283.058 228.912 221.84 207.817 197.702 190.111C161.34 159.932 149.318 89.7739 149.318 89.7739C149.318 89.7739 149.168 83.869 145.317 79.2498C125.595 53.9982 97.5532 60.0035 85.998 66.1627C60.1138 82.7922 62.8867 111.585 67.5093 123.902C82.9165 157.776 116.043 152.387 130.68 145.458L157.642 193.96C141.619 209.357 105.257 208.587 89.0796 206.278C34.229 193.96 12.3008 148.794 8.19336 127.751C-4.13281 63.6985 38.4941 25.6162 61.3486 14.5815C106.338 -6.97461 148.914 9.1925 164.578 19.9707C202.326 47.6859 208.622 95.4177 208.622 95.4177C208.622 95.4177 210.111 108.42 213.111 116.974C221.322 140.379 253.684 152.131 267.808 149.308C304.785 138.838 303.758 105.426 298.622 90.0284C281.366 53.075 248.292 58.7206 233.911 66.1627L205.408 16.1213C269.504 -18.984 324.044 24.5897 343.301 50.7648C354.703 69.6091 358.967 88.0377 359 104.781Z" fill="#06122F"/>
</svg>
