<svg width="364" height="206" viewBox="0 0 364 206" fill="none" xmlns="http://www.w3.org/2000/svg">
<path fill-rule="evenodd" clip-rule="evenodd" d="M5 0H0V206H5H359H364V0H359H5ZM359 101.781V102.178C358.94 132.317 345.204 156.947 334.827 168.634C283.058 225.912 221.84 204.817 197.702 187.111C161.34 156.932 149.318 86.7739 149.318 86.7739C149.318 86.7739 149.168 80.869 145.317 76.2498C125.595 50.9982 97.5532 57.0035 85.998 63.1627C60.1138 79.7922 62.8867 108.585 67.5093 120.902C82.9165 154.776 116.043 149.387 130.68 142.458L157.642 190.96C141.619 206.357 105.257 205.587 89.0796 203.278C34.229 190.96 12.3008 145.794 8.19336 124.751C-4.13281 60.6985 38.4941 22.6162 61.3486 11.5815C106.338 -9.97461 148.914 6.1925 164.578 16.9707C202.326 44.6859 208.622 92.4177 208.622 92.4177C208.622 92.4177 210.111 105.42 213.111 113.974C221.322 137.379 253.684 149.131 267.808 146.308C304.785 135.838 303.758 102.426 298.622 87.0284C281.366 50.075 248.292 55.7206 233.911 63.1627L205.408 13.1213C269.504 -21.984 324.044 21.5897 343.301 47.7648C354.703 66.6091 358.967 85.0377 359 101.781Z" fill="#06122F"/>
</svg>
