<svg width="24" height="24" viewBox="0 0 24 24" fill="none" xmlns="http://www.w3.org/2000/svg">
<mask id="mask0_26_2704" style="mask-type:alpha" maskUnits="userSpaceOnUse" x="0" y="0" width="24" height="24">
<rect width="24" height="24" fill="#D9D9D9"/>
</mask>
<g mask="url(#mask0_26_2704)">
<path d="M4.25003 17.6346C4.03753 17.6346 3.85941 17.5627 3.71566 17.4189C3.57191 17.2751 3.50003 17.0969 3.50003 16.8843C3.50003 16.6717 3.57191 16.4936 3.71566 16.35C3.85941 16.2064 4.03753 16.1346 4.25003 16.1346H19.75C19.9625 16.1346 20.1406 16.2065 20.2844 16.3504C20.4281 16.4942 20.5 16.6724 20.5 16.885C20.5 17.0975 20.4281 17.2756 20.2844 17.4192C20.1406 17.5628 19.9625 17.6346 19.75 17.6346H4.25003ZM4.25003 12.75C4.03753 12.75 3.85941 12.6781 3.71566 12.5343C3.57191 12.3905 3.50003 12.2123 3.50003 11.9997C3.50003 11.7871 3.57191 11.609 3.71566 11.4654C3.85941 11.3218 4.03753 11.25 4.25003 11.25H19.75C19.9625 11.25 20.1406 11.3219 20.2844 11.4657C20.4281 11.6095 20.5 11.7877 20.5 12.0003C20.5 12.2129 20.4281 12.391 20.2844 12.5346C20.1406 12.6782 19.9625 12.75 19.75 12.75H4.25003ZM4.25003 7.86538C4.03753 7.86538 3.85941 7.79347 3.71566 7.64965C3.57191 7.50585 3.50003 7.32765 3.50003 7.11505C3.50003 6.90247 3.57191 6.72438 3.71566 6.5808C3.85941 6.4372 4.03753 6.3654 4.25003 6.3654H19.75C19.9625 6.3654 20.1406 6.43731 20.2844 6.58113C20.4281 6.72494 20.5 6.90314 20.5 7.11573C20.5 7.32833 20.4281 7.50642 20.2844 7.65C20.1406 7.79358 19.9625 7.86538 19.75 7.86538H4.25003Z" fill="white"/>
</g>
</svg>
