<svg width="24" height="24" viewBox="0 0 24 24" fill="none" xmlns="http://www.w3.org/2000/svg">
<mask id="mask0_26_3054" style="mask-type:alpha" maskUnits="userSpaceOnUse" x="0" y="0" width="24" height="24">
<rect width="24" height="24" fill="#D9D9D9"/>
</mask>
<g mask="url(#mask0_26_3054)">
<path d="M12.0001 16.5116L16.0732 12.4538C16.2116 12.3154 16.3831 12.242 16.5876 12.2337C16.7921 12.2253 16.9719 12.2987 17.127 12.4538C17.2719 12.5987 17.3443 12.7744 17.3443 12.9808C17.3443 13.1872 17.2719 13.3628 17.127 13.5077L12.6328 18.0019C12.5392 18.0955 12.4405 18.1615 12.3366 18.2C12.2328 18.2384 12.1206 18.2577 12.0001 18.2577C11.8796 18.2577 11.7674 18.2384 11.6636 18.2C11.5597 18.1615 11.461 18.0955 11.3674 18.0019L6.87318 13.5077C6.73471 13.3692 6.66131 13.1978 6.65298 12.9933C6.64465 12.7888 6.71805 12.609 6.87318 12.4538C7.01805 12.309 7.19368 12.2365 7.40008 12.2365C7.60648 12.2365 7.78211 12.309 7.92698 12.4538L12.0001 16.5116ZM12.0001 10.5308L16.0732 6.4731C16.2116 6.33463 16.3831 6.26123 16.5876 6.2529C16.7921 6.24456 16.9719 6.31796 17.127 6.4731C17.2719 6.61796 17.3443 6.79359 17.3443 6.99999C17.3443 7.20639 17.2719 7.38203 17.127 7.52689L12.6328 12.0211C12.5392 12.1147 12.4405 12.1807 12.3366 12.2192C12.2328 12.2577 12.1206 12.2769 12.0001 12.2769C11.8796 12.2769 11.7674 12.2577 11.6636 12.2192C11.5597 12.1807 11.461 12.1147 11.3674 12.0211L6.87318 7.52689C6.73471 7.38844 6.66131 7.21698 6.65298 7.01249C6.64465 6.80801 6.71805 6.62821 6.87318 6.4731C7.01805 6.32821 7.19368 6.25577 7.40008 6.25577C7.60648 6.25577 7.78211 6.32821 7.92698 6.4731L12.0001 10.5308Z" fill="white"/>
</g>
</svg>
