<svg width="160" height="160" viewBox="0 0 160 160" fill="none" xmlns="http://www.w3.org/2000/svg">
<path d="M94.751 70.276H113.055L101.391 58.605C97.6362 54.8499 92.9588 52.1495 87.8291 50.7752C82.6995 49.401 77.2984 49.4014 72.169 50.7764C67.0395 52.1514 62.3625 54.8525 58.6079 58.6082C54.8534 62.3639 52.1537 67.0418 50.7803 72.1717M46.945 108.028V89.724M46.945 89.724H65.249M46.945 89.724L58.605 101.395C62.3601 105.15 67.0376 107.851 72.1672 109.225C77.2969 110.599 82.6979 110.599 87.8274 109.224C92.9568 107.849 97.6339 105.148 101.388 101.392C105.143 97.6362 107.843 92.9582 109.216 87.8284M113.055 51.972V70.2687" stroke="white" stroke-width="1.5" stroke-linecap="round" stroke-linejoin="round"/>
</svg>
