<svg width="250" height="146" viewBox="0 0 250 146" fill="none" xmlns="http://www.w3.org/2000/svg">
<path d="M161.41 44.7658L141.223 9.29962C186.618 -15.5809 225.243 15.3014 238.882 33.8527C261.578 71.3923 244.338 106.604 232.88 119.517C196.217 160.112 152.861 145.162 135.766 132.612C110.014 111.223 101.5 61.5 101.5 61.5C101.5 61.5 101.394 57.3149 98.6659 54.0411C84.6989 36.1444 64.8396 40.4006 56.6558 44.7658C38.324 56.5518 40.2882 76.958 43.5617 85.6879C54.4734 109.696 77.9336 105.876 88.2998 100.966L107.395 135.34C96.0471 146.253 70.2954 145.708 58.8381 144.071C19.9923 135.34 4.46248 103.33 1.55327 88.416C-7.17611 43.0193 23.013 16.029 39.1987 8.20835C71.061 -7.06938 101.214 4.38892 112.307 12.0278C139.041 31.6706 143.5 65.5 143.5 65.5C143.5 65.5 144.554 74.715 146.679 80.7776C152.494 97.3655 175.414 105.695 185.416 103.694C211.604 96.2735 210.877 72.5931 207.239 61.6804C195.018 35.49 171.594 39.4913 161.41 44.7658Z" fill="white" fill-opacity="0.06"/>
</svg>
