<svg width="160" height="160" viewBox="0 0 160 160" fill="none" xmlns="http://www.w3.org/2000/svg">
<path d="M112.75 56.75C112.75 59.0356 112.276 61.2963 111.356 63.3889C110.437 65.4814 109.093 67.3601 107.409 68.9059C105.725 70.4516 103.739 71.6307 101.576 72.3684C99.4122 73.1061 97.1193 73.3864 94.842 73.1913C90.8967 72.8577 86.5407 73.4516 84.0253 76.506L57.8013 108.347C56.9741 109.356 55.9449 110.18 54.78 110.766C53.6151 111.353 52.3402 111.689 51.0375 111.753C49.7349 111.817 48.4332 111.608 47.2163 111.139C45.9994 110.669 44.8943 109.95 43.972 109.028C43.0497 108.106 42.3308 107.001 41.8615 105.784C41.3921 104.567 41.1828 103.265 41.2469 101.962C41.311 100.66 41.6472 99.3849 42.2337 98.22C42.8203 97.0551 43.6443 96.0259 44.6527 95.1986L76.494 68.9747C79.5483 66.4593 80.1423 62.1033 79.8087 58.158C79.5625 55.2913 80.0702 52.41 81.2815 49.8002C82.4928 47.1903 84.3655 44.9425 86.7137 43.2799C89.062 41.6173 91.8042 40.5977 94.6682 40.3222C97.5322 40.0467 100.419 40.5249 103.041 41.7093L91.0287 53.7213C91.4934 55.731 92.5131 57.5698 93.9716 59.0284C95.4302 60.4869 97.269 61.5066 99.2787 61.9713L111.291 49.9593C112.229 52.031 112.75 54.33 112.75 56.75Z" stroke="white" stroke-width="1.5" stroke-linecap="round" stroke-linejoin="round"/>
<path d="M50.8457 102.125H50.8752V102.155H50.8457V102.125Z" stroke="white" stroke-width="1.5" stroke-linecap="round" stroke-linejoin="round"/>
<path d="M103.238 94.5667C103.388 93.6633 104.172 93 105.088 93H106.91C107.827 93 108.61 93.6633 108.76 94.5667L109.008 96.0567C109.125 96.7633 109.648 97.33 110.308 97.6067C110.972 97.88 111.733 97.8433 112.317 97.4267L113.545 96.5483C113.906 96.2901 114.347 96.1685 114.79 96.2051C115.233 96.2417 115.648 96.4342 115.962 96.7483L117.25 98.0383C117.9 98.6867 117.983 99.7083 117.45 100.455L116.572 101.683C116.155 102.267 116.118 103.027 116.393 103.69C116.668 104.352 117.235 104.873 117.943 104.99L119.432 105.24C120.337 105.39 120.998 106.172 120.998 107.088V108.912C120.998 109.828 120.337 110.612 119.432 110.762L117.942 111.01C117.235 111.127 116.668 111.648 116.393 112.31C116.118 112.973 116.155 113.733 116.572 114.317L117.45 115.547C117.983 116.292 117.898 117.313 117.25 117.963L115.96 119.252C115.646 119.565 115.231 119.758 114.789 119.794C114.347 119.831 113.906 119.709 113.545 119.452L112.315 118.573C111.732 118.157 110.972 118.12 110.31 118.395C109.647 118.67 109.127 119.237 109.008 119.943L108.76 121.433C108.61 122.337 107.827 123 106.91 123H105.087C104.17 123 103.388 122.337 103.237 121.433L102.99 119.943C102.872 119.237 102.35 118.67 101.688 118.393C101.025 118.12 100.265 118.157 99.6817 118.573L98.4517 119.452C97.7067 119.985 96.685 119.9 96.035 119.252L94.7467 117.962C94.4325 117.648 94.24 117.233 94.2034 116.79C94.1668 116.347 94.2884 115.906 94.5467 115.545L95.425 114.317C95.8417 113.733 95.8783 112.973 95.605 112.31C95.33 111.648 94.7617 111.127 94.055 111.01L92.565 110.76C91.6617 110.61 90.9983 109.827 90.9983 108.912V107.088C90.9983 106.172 91.6617 105.388 92.565 105.238L94.055 104.99C94.7617 104.873 95.33 104.352 95.605 103.69C95.88 103.027 95.8433 102.267 95.425 101.683L94.5483 100.453C94.2901 100.092 94.1684 99.6509 94.2051 99.2083C94.2417 98.7658 94.4342 98.3506 94.7483 98.0367L96.0367 96.7483C96.3505 96.4342 96.7657 96.2417 97.2083 96.2051C97.6509 96.1685 98.0921 96.2901 98.4533 96.5483L99.6817 97.4267C100.265 97.8433 101.027 97.88 101.688 97.605C102.35 97.33 102.872 96.7633 102.988 96.0567L103.238 94.5667Z" stroke="white" stroke-width="1.5" stroke-linecap="round" stroke-linejoin="round"/>
<path d="M111 108C111 109.326 110.473 110.598 109.536 111.536C108.598 112.473 107.326 113 106 113C104.674 113 103.402 112.473 102.464 111.536C101.527 110.598 101 109.326 101 108C101 106.674 101.527 105.402 102.464 104.464C103.402 103.527 104.674 103 106 103C107.326 103 108.598 103.527 109.536 104.464C110.473 105.402 111 106.674 111 108Z" stroke="white" stroke-width="1.5" stroke-linecap="round" stroke-linejoin="round"/>
</svg>
