<svg width="56" height="32" viewBox="0 0 56 32" fill="none" xmlns="http://www.w3.org/2000/svg">
<path d="M35.9298 9.81168L31.5053 2.03827C41.4548 -3.415 49.9206 3.35374 52.9099 7.41977C57.8844 15.6476 54.1057 23.3652 51.5945 26.1955C43.5587 35.0931 34.056 31.8163 30.3091 29.0657C24.6649 24.3777 22.7988 13.4795 22.7988 13.4795C22.7988 13.4795 22.7756 12.5622 22.1777 11.8446C19.1164 7.92205 14.7637 8.85492 12.9699 9.81168C8.95204 12.3949 9.38253 16.8675 10.1 18.7809C12.4916 24.0429 17.6336 23.2058 19.9056 22.1294L24.0909 29.6637C21.6037 32.0555 15.9595 31.9359 13.4483 31.5771C4.93413 29.6637 1.53032 22.6477 0.89269 19.3789C-1.0206 9.42889 5.59619 3.5132 9.14375 1.79909C16.1273 -1.54945 22.7361 0.961954 25.1676 2.63623C31.027 6.9415 32.0043 14.3562 32.0043 14.3562C32.0043 14.3562 32.2353 16.3759 32.7011 17.7047C33.9756 21.3404 38.999 23.166 41.1914 22.7275C46.9312 21.1011 46.7718 15.9108 45.9746 13.519C43.296 7.77863 38.162 8.65563 35.9298 9.81168Z" fill="#0088FF"/>
</svg>
