<svg width="42" height="24" viewBox="0 0 42 24" fill="none" xmlns="http://www.w3.org/2000/svg">
<path d="M27.0854 7.35876L23.7671 1.5287C31.2291 -2.56125 37.5785 2.51531 39.8205 5.56483C43.5514 11.7357 40.7173 17.5239 38.8339 19.6466C32.8071 26.3198 25.6801 23.8622 22.8699 21.7993C18.6368 18.2833 17.2372 10.1096 17.2372 10.1096C17.2372 10.1096 17.2197 9.42163 16.7713 8.88347C14.4754 5.94154 11.2108 6.64119 9.86552 7.35876C6.85209 9.29619 7.17496 12.6506 7.71307 14.0857C9.50678 18.0322 13.3633 17.4043 15.0673 16.5971L18.2063 22.2477C16.3408 24.0416 12.1077 23.9519 10.2243 23.6828C3.83866 22.2477 1.2858 16.9858 0.807579 14.5341C-0.627389 7.07167 4.33521 2.6349 6.99588 1.34932C12.2335 -1.16209 17.1901 0.721466 19.0137 1.97717C23.4083 5.20612 24.1413 10.7671 24.1413 10.7671C24.1413 10.7671 24.3146 12.2819 24.6639 13.2785C25.6198 16.0053 29.3873 17.3745 31.0316 17.0456C35.3365 15.8258 35.2169 11.9331 34.619 10.1392C32.61 5.83398 28.7596 6.49172 27.0854 7.35876Z" fill="white"/>
</svg>
